HIERARCHY
ROOT Hips
{
	OFFSET -3.958830 18.904000 13.208200
	CHANNELS 6 Xposition Yposition Zposition Zrotation Yrotation Xrotation 
	JOINT LHipJoint
	{
		OFFSET 0.000000 0.000000 0.000000
		CHANNELS 3 Zrotation Yrotation Xrotation
		JOINT LeftUpLeg
		{
			OFFSET 1.800000 -1.400000 0.085000
			CHANNELS 3 Zrotation Yrotation Xrotation
			JOINT LeftLeg
			{
				OFFSET 2.215000 -6.000000 0.000000
				CHANNELS 3 Zrotation Yrotation Xrotation
				JOINT LeftFoot
				{
					OFFSET 2.500000 -6.900000 0.000000
					CHANNELS 3 Zrotation Yrotation Xrotation
					JOINT LeftToeBase
					{
						OFFSET 0.200000 -0.500000 1.950000
						CHANNELS 3 Zrotation Yrotation Xrotation
						End Site
						{
							OFFSET 0.000000 0.000000 0.000000
						}
					}
				}
			}
		}
	}
	JOINT RHipJoint
	{
		OFFSET 0.000000 0.000000 0.000000
		CHANNELS 3 Zrotation Yrotation Xrotation
		JOINT RightUpLeg
		{
			OFFSET -1.800000 -1.400000 0.085000
			CHANNELS 3 Zrotation Yrotation Xrotation
			JOINT RightLeg
			{
				OFFSET -2.215000 -6.000000 0.000000
				CHANNELS 3 Zrotation Yrotation Xrotation
				JOINT RightFoot
				{
					OFFSET -2.500000 -6.900000 0.000000
					CHANNELS 3 Zrotation Yrotation Xrotation
					JOINT RightToeBase
					{
						OFFSET -0.200000 -0.500000 1.950000
						CHANNELS 3 Zrotation Yrotation Xrotation
						End Site
						{
							OFFSET 0.000000 0.000000 0.000000
						}
					}
				}
			}
		}
	}
	JOINT LowerBack
	{
		OFFSET 0.000000 0.000000 0.000000
		CHANNELS 3 Zrotation Yrotation Xrotation
		JOINT Spine
		{
			OFFSET -0.087000 1.940000 -0.288900
			CHANNELS 3 Zrotation Yrotation Xrotation
			JOINT Spine1
			{
				OFFSET 0.000000 1.950000 0.060000
				CHANNELS 3 Zrotation Yrotation Xrotation
				JOINT Neck
				{
					OFFSET 0.000000 0.000000 0.000000
					CHANNELS 3 Zrotation Yrotation Xrotation
					JOINT Neck1
					{
						OFFSET 0.000000 1.600000 0.340000
						CHANNELS 3 Zrotation Yrotation Xrotation
						JOINT Head
						{
							OFFSET 0.000000 1.667000 -0.240000
							CHANNELS 3 Zrotation Yrotation Xrotation
							End Site
							{
								OFFSET 0.000000 0.000000 0.000000
							}
						}
					}
				}
				JOINT LeftShoulder
				{
					OFFSET 0.000000 0.000000 0.000000
					CHANNELS 3 Zrotation Yrotation Xrotation
					JOINT LeftArm
					{
						OFFSET 2.700000 1.550000 -0.730000
						CHANNELS 3 Zrotation Yrotation Xrotation
						JOINT LeftForeArm
						{
							OFFSET 5.450000 0.000000 0.000000
							CHANNELS 3 Zrotation Yrotation Xrotation
							JOINT LeftHand
							{
								OFFSET 3.450000 0.000000 0.000000
								CHANNELS 3 Zrotation Yrotation Xrotation
								JOINT LeftHandIndex1
								{
									OFFSET 0.750000 0.000000 0.000000
									CHANNELS 3 Zrotation Yrotation Xrotation
									End Site
									{
										OFFSET 0.000000 0.000000 0.000000
									}
								}
							}
						}
					}
				}
				JOINT RightShoulder
				{
					OFFSET 0.000000 0.000000 0.000000
					CHANNELS 3 Zrotation Yrotation Xrotation
					JOINT RightArm
					{
						OFFSET -2.700000 1.550000 -0.730000
						CHANNELS 3 Zrotation Yrotation Xrotation
						JOINT RightForeArm
						{
							OFFSET -5.450000 0.000000 0.000000
							CHANNELS 3 Zrotation Yrotation Xrotation
							JOINT RightHand
							{
								OFFSET -3.450000 0.000000 0.000000
								CHANNELS 3 Zrotation Yrotation Xrotation
								JOINT RightHandIndex1
								{
									OFFSET -0.750000 0.000000 0.000000
									CHANNELS 3 Zrotation Yrotation Xrotation
									End Site
									{
										OFFSET 0.000000 0.000000 0.000000
									}
								}
							}
						}
					}
				}
			}
		}
	}
}
MOTION
Frames: 8
Frame Time: 0.016667
-1.210390 16.860740 -0.772660 -2.676542 -9.532346 -10.000100 -15.078034 13.065996 4.448461 34.173418 -1.468271 2.235435 -16.918930 9.806593 7.356639 0.246665 8.062859 1.684774 0.670860 0.231690 0.805240 18.292725 -9.769773 2.182848 -16.753702 -2.534357 -6.011276 6.353418 -4.524191 3.184880 -0.569163 -3.373298 3.225513 0.117390 -0.152050 0.055810 -3.742371 -3.829448 -8.489283 6.298777 -8.947875 23.381579 -16.817661 -1.383395 16.717511 6.402964 -7.011257 -28.806646 -38.243571 25.296662 38.798546 2.695760 13.723350 -13.705740 -19.677463 -29.124708 11.635784 -19.807683 -30.991837 -3.532198 20.057866 -13.963453 -4.670325 -3.433366 2.862414 0.923720 -0.282730 0.258820 0.065980 9.004948 31.110478 20.031180 2.773432 -9.601735 -0.278080 -4.890736 -3.634105 0.348589 2.775186 -0.692040 -0.240560 0.226960 -0.187510 -0.403290 
-1.281280 16.911700 -0.768650 -2.016486 -9.454489 -10.707960 -15.088439 13.021088 4.463151 34.936377 -1.528335 1.965336 -18.396145 10.788573 9.906248 0.270493 8.348275 1.532704 0.700740 0.245940 0.831470 18.279753 -9.762109 2.284810 -16.925389 -2.689499 -4.570355 6.154443 -4.463606 1.884249 -0.651468 -3.481244 3.182290 0.110410 -0.211910 0.070020 -3.715952 -3.724544 -8.596543 5.027542 -8.582147 24.160846 -16.383304 -1.115039 15.896582 6.454675 -6.693412 -29.576572 -38.783682 25.778322 41.363079 3.133450 13.461300 -14.912630 -19.992949 -29.300607 11.680175 -20.318214 -30.205032 -3.649060 19.430149 -15.384750 -4.734933 -3.344604 2.870905 0.990170 -0.333350 0.307250 0.055180 9.385887 31.726507 20.457354 2.984988 -10.075108 -0.333424 -4.361047 -4.845458 0.437620 2.804865 -0.630867 -0.224400 0.204200 -0.190610 -0.424460 
-1.449410 16.993820 -0.754330 -0.200699 -8.932711 -11.947946 -15.161874 12.743699 4.649761 36.812410 -2.008559 1.248378 -23.440719 13.438636 14.782018 0.385459 9.289573 1.170728 0.715080 0.270250 0.841130 18.255936 -9.635165 2.382306 -17.877706 -3.058377 -1.861242 5.921726 -4.446004 -0.084038 -0.760517 -3.754055 3.118400 0.139260 -0.212240 0.019480 -3.608365 -3.572925 -8.828802 1.490265 -7.415816 24.927469 -14.641338 -0.328521 15.660344 5.558326 -6.594546 -30.036123 -39.693863 26.587746 43.345189 5.440310 12.966560 -16.616200 -19.692805 -29.671159 11.561641 -21.545525 -29.481936 -3.905823 19.313644 -17.490427 -5.139210 -3.261653 2.796418 1.058280 -0.368650 0.325120 0.053980 11.151408 32.164563 21.041617 1.972953 -12.090746 -0.275749 -4.946022 -4.850816 0.481173 2.759561 -0.571884 -0.271940 0.284540 -0.184870 -0.443120 
-1.601500 17.028300 -0.726670 0.983902 -8.750223 -12.488897 -15.273412 12.232617 5.099741 40.058471 -2.912715 -0.294464 -31.706724 17.652884 19.813377 0.747156 10.646535 0.713269 0.762880 0.352830 0.837230 18.271020 -9.371709 2.295386 -19.049261 -3.359892 -0.055668 6.334744 -4.564235 -0.735964 -0.840277 -4.019916 3.028878 0.177010 -0.200920 0.035770 -3.531811 -3.495668 -9.016351 0.213238 -6.844483 24.879840 -14.021633 0.225035 15.839068 4.892044 -7.059464 -29.118211 -40.536705 26.215721 41.379300 5.745720 12.391920 -17.426140 -18.331105 -29.387597 10.480791 -22.210616 -29.400673 -3.312822 16.461897 -19.668520 -4.743444 -3.197155 2.830699 1.018050 -0.365150 0.340280 0.093890 11.175384 31.753875 21.131040 0.844978 -13.078532 -0.080429 -4.824258 -4.363517 0.353207 2.741665 -0.616307 -0.231190 0.292060 -0.218760 -0.401340 
-1.754460 17.057230 -0.701830 2.887881 -8.099224 -12.775526 -15.408264 11.752745 5.648050 42.786699 -4.031210 -2.185654 -42.819152 22.512228 22.691960 1.131691 11.761594 0.377701 0.799530 0.401130 0.863840 18.242205 -9.121551 2.145752 -21.155706 -3.651015 1.140301 6.804707 -4.825264 -0.351663 -0.874857 -4.254457 2.931116 0.215600 -0.217020 0.021680 -3.358354 -3.527748 -9.230696 -2.158879 -6.225036 24.453670 -13.217576 0.644186 15.518268 4.337579 -7.369903 -28.238697 -40.796012 25.940184 40.211771 5.302980 12.372840 -17.780190 -17.825252 -28.888224 9.786440 -22.960979 -30.427490 -2.055711 14.924202 -18.903880 -4.205960 -3.204663 2.830744 0.994830 -0.370410 0.335360 0.101780 11.796551 31.237210 20.832896 -0.855058 -13.044580 -0.060926 -4.997819 -4.944674 0.246527 2.768821 -0.656034 -0.225880 0.291430 -0.245750 -0.401440 
-1.899300 17.101010 -0.685730 4.567939 -7.269602 -13.668698 -15.463245 11.359197 6.016356 45.105883 -4.998127 -3.798392 -54.018148 27.933118 24.950319 1.468071 12.383916 0.203977 0.861150 0.467530 0.934200 18.235104 -9.022498 2.140120 -23.293912 -3.937499 2.551130 7.802549 -5.181181 -0.208637 -0.973219 -4.520260 2.812809 0.236230 -0.302590 0.009760 -3.312293 -3.280323 -9.424791 -4.359073 -5.524785 25.486768 -12.007219 0.964645 14.055980 4.190319 -7.069777 -28.377631 -41.453272 26.987433 41.811216 5.128880 13.102210 -19.178900 -18.450561 -28.732003 9.597630 -24.180265 -30.936258 -1.506210 13.666440 -19.318795 -3.928597 -3.121694 2.837632 1.031890 -0.431370 0.392980 0.098630 12.924034 31.087197 20.914513 -2.542166 -14.530482 0.197269 -4.371587 -4.674745 0.160014 2.768464 -0.637795 -0.199820 0.269760 -0.295530 -0.421480 
-2.051970 17.136190 -0.661370 6.529413 -6.282829 -14.100734 -15.534629 11.105619 6.223947 47.192185 -5.416284 -5.495392 -65.929858 34.027785 25.939575 1.689527 12.644462 0.160514 0.836660 0.442020 0.930730 18.195335 -8.885941 2.230080 -24.992596 -3.955717 3.771713 8.442688 -5.310757 -1.091441 -1.028549 -4.771825 2.725205 0.213620 -0.306120 0.012110 -3.182253 -3.161561 -9.599439 -7.184809 -4.322112 25.586616 -10.282630 1.589623 12.554832 3.956349 -6.709995 -28.389374 -41.168759 27.404563 44.203767 5.081370 13.300770 -18.965390 -19.107230 -28.710131 9.182857 -24.884112 -31.473548 -0.180806 10.984291 -19.107093 -3.171188 -3.140347 2.777834 1.045390 -0.430640 0.401090 0.076530 14.313873 31.116136 21.079033 -3.545575 -16.250427 0.284419 -4.437358 -5.333535 0.148654 2.774393 -0.599254 -0.200920 0.271700 -0.274090 -0.429810 
-2.190320 17.168270 -0.647360 7.417295 -5.423472 -13.778464 -15.543889 10.948915 6.324672 49.519537 -5.027466 -7.419564 -77.686366 40.023061 25.375972 1.761305 12.549481 0.232514 0.806670 0.406120 0.909490 18.207431 -8.843785 2.312234 -25.354133 -3.810341 4.041277 9.292944 -5.328231 -1.569717 -1.036600 -4.867149 2.701968 0.210800 -0.276070 -0.023920 -3.202879 -2.966994 -9.699959 -8.110052 -3.871525 25.281879 -9.289391 1.777728 10.963844 3.676462 -6.459278 -28.622130 -41.158422 27.974954 45.376864 6.573280 13.196030 -17.873130 -19.749149 -28.834682 9.316458 -26.062431 -30.933558 0.070913 9.664719 -20.402704 -3.034537 -3.113413 2.747090 1.063140 -0.428000 0.375900 0.071270 15.787610 31.032156 21.041150 -4.791137 -17.740203 0.435367 -5.213544 -5.087211 0.168091 2.758267 -0.585895 -0.246940 0.311090 -0.252290 -0.439940 
